<?xml version="1.0" standalone="no"?>
<!DOCTYPE svg PUBLIC "-//W3C//DTD SVG 20010904//EN"
 "http://www.w3.org/TR/2001/REC-SVG-20010904/DTD/svg10.dtd">
<svg version="1.0" xmlns="http://www.w3.org/2000/svg"
 width="512.000000pt" height="512.000000pt" viewBox="0 0 512.000000 512.000000"
 preserveAspectRatio="xMidYMid meet">

<g transform="translate(0.000000,512.000000) scale(0.100000,-0.100000)"
fill="#111111" stroke="none">
<path d="M1440 3696 c-140 -63 -266 -128 -371 -192 -380 -229 -751 -549 -1008
-866 l-62 -78 62 -77 c356 -442 894 -851 1403 -1070 l78 -33 -101 105 c-286
301 -432 662 -432 1075 0 412 146 774 432 1074 56 58 100 106 98 105 -2 0 -47
-19 -99 -43z"/>
<path d="M3679 3635 c286 -301 432 -662 432 -1075 0 -413 -146 -774 -432
-1075 l-101 -105 78 33 c509 219 1047 628 1403 1070 l62 77 -62 78 c-356 441
-894 850 -1403 1069 l-78 33 101 -105z"/>
<path d="M2184 3452 c-127 -56 -198 -106 -304 -212 -144 -144 -223 -284 -266
-475 -25 -107 -25 -300 0 -410 82 -366 375 -659 741 -741 108 -24 302 -24 410
0 366 82 659 375 741 741 25 110 25 303 0 410 -22 97 -66 206 -120 300 -55 94
-228 267 -320 320 -82 47 -195 97 -205 91 -4 -3 -72 -138 -151 -300 -80 -163
-147 -296 -150 -296 -3 0 -71 135 -152 300 -80 165 -150 300 -155 299 -4 0
-35 -12 -69 -27z"/>
</g>
</svg>
