<?xml version="1.0"?>
<svg width="512" height="512" xmlns="http://www.w3.org/2000/svg" xmlns:svg="http://www.w3.org/2000/svg" preserveAspectRatio="xMidYMid meet" version="1.0">

 <g class="layer">
  <title>Layer 1</title>
  <g fill="#000000" id="svg_1" transform="matrix(0.1, 0, 0, -0.1, 0, 0)">
   <path d="m1440,-1424c-140,-63 -266,-128 -371,-192c-380,-229 -751,-549 -1008,-866l-62,-78l62,-77c356,-442 894,-851 1403,-1070l78,-33l-101,105c-286,301 -432,662 -432,1075c0,412 146,774 432,1074c56,58 100,106 98,105c-2,0 -47,-19 -99,-43z" fill="#ffffff" id="svg_2"/>
   <path d="m3679,-1485c286,-301 432,-662 432,-1075c0,-413 -146,-774 -432,-1075l-101,-105l78,33c509,219 1047,628 1403,1070l62,77l-62,78c-356,441 -894,850 -1403,1069l-78,33l101,-105z" fill="#ffffff" id="svg_3"/>
   <path d="m2184,-1668c-127,-56 -198,-106 -304,-212c-144,-144 -223,-284 -266,-475c-25,-107 -25,-300 0,-410c82,-366 375,-659 741,-741c108,-24 302,-24 410,0c366,82 659,375 741,741c25,110 25,303 0,410c-22,97 -66,206 -120,300c-55,94 -228,267 -320,320c-82,47 -195,97 -205,91c-4,-3 -72,-138 -151,-300c-80,-163 -147,-296 -150,-296c-3,0 -71,135 -152,300c-80,165 -150,300 -155,299c-4,0 -35,-12 -69,-27z" fill="#ffffff" id="svg_4"/>
  </g>
 </g>
</svg>