<?xml version="1.0" encoding="UTF-8"?>
<svg version="1.1" xmlns="http://www.w3.org/2000/svg" width="500" height="500">
<path d="M0 0 C1.11640869 -0.0236412 1.11640869 -0.0236412 2.25537109 -0.04776001 C3.04508301 -0.03763885 3.83479492 -0.0275177 4.6484375 -0.01708984 C5.4729541 -0.02187347 6.2974707 -0.0266571 7.14697266 -0.03158569 C8.88511063 -0.03497857 10.62331294 -0.02581887 12.36132812 -0.00488281 C15.01577575 0.02189536 17.66599575 -0.0046473 20.3203125 -0.03662109 C22.01303013 -0.03331688 23.70574513 -0.0269104 25.3984375 -0.01708984 C26.18814941 -0.027211 26.97786133 -0.03733215 27.79150391 -0.04776001 C32.0082722 0.04153478 33.59500696 0.31081305 37.03198242 3.00756836 C39.39221703 6.13574004 39.5685264 7.59849693 39.3359375 11.45947266 C39.29082031 12.43529297 39.24570312 13.41111328 39.19921875 14.41650391 C39.14121094 15.15255859 39.08320313 15.88861328 39.0234375 16.64697266 C40.12751953 16.55996094 40.12751953 16.55996094 41.25390625 16.47119141 C42.22972656 16.42607422 43.20554687 16.38095703 44.2109375 16.33447266 C45.17386719 16.27646484 46.13679687 16.21845703 47.12890625 16.15869141 C51.17571483 16.84135142 52.45868522 18.49706746 55.0234375 21.64697266 C55.67041016 24.88916016 55.67041016 24.88916016 55.6875 28.52197266 C55.69394531 29.83681641 55.70039063 31.15166016 55.70703125 32.50634766 C55.69655762 33.18632813 55.68608398 33.86630859 55.67529297 34.56689453 C55.64849758 36.64231946 55.67506637 38.71233941 55.70703125 40.78759766 C55.70058594 42.10244141 55.69414062 43.41728516 55.6875 44.77197266 C55.68186035 45.97080078 55.6762207 47.16962891 55.67041016 48.40478516 C54.84403668 52.54600768 53.28686204 54.04945456 50.0234375 56.64697266 C46.23018199 57.28686056 42.90167442 56.88060139 39.0234375 56.64697266 C39.0234375 61.26697266 39.0234375 65.88697266 39.0234375 70.64697266 C40.19261719 70.61216797 41.36179687 70.57736328 42.56640625 70.54150391 C44.11456891 70.51335549 45.66274718 70.48605646 47.2109375 70.45947266 C47.97986328 70.43433594 48.74878906 70.40919922 49.54101562 70.38330078 C54.15694742 70.32386818 57.43712267 70.41469987 61.0234375 73.64697266 C64.25880739 79.19633535 64.43384161 84.0138298 64.2734375 90.33447266 C64.25373901 91.65523804 64.25373901 91.65523804 64.23364258 93.00268555 C64.185675 95.5519866 64.11118156 98.09876048 64.0234375 100.64697266 C63.98089844 101.89994141 63.93835938 103.15291016 63.89453125 104.44384766 C63.58344915 109.76533716 63.16086663 113.19259797 60.0234375 117.64697266 C57.67491222 118.8212353 56.28569685 118.76205439 53.671875 118.74462891 C52.90536621 118.74213135 52.13885742 118.73963379 51.34912109 118.73706055 C50.37539551 118.72795654 49.40166992 118.71885254 48.3984375 118.70947266 C45.3046875 118.68884766 42.2109375 118.66822266 39.0234375 118.64697266 C39.3534375 130.19697266 39.6834375 141.74697266 40.0234375 153.64697266 C43.3234375 155.29697266 46.6234375 156.94697266 50.0234375 158.64697266 C63.71072821 169.16340091 75.58701057 184.10469874 78.0234375 201.64697266 C79.47631763 222.33321826 75.90861306 239.16735614 62.16015625 255.37744141 C50.88662493 267.3517041 35.51810316 275.38670775 19.05517578 275.92382812 C5.42482433 276.14275346 -6.04741824 273.39808177 -17.9765625 266.64697266 C-18.25628906 267.26185547 -18.53601563 267.87673828 -18.82421875 268.51025391 C-20.87989868 272.32197228 -23.93861846 274.30099131 -27.9765625 275.64697266 C-30.15700177 275.74532764 -32.3403758 275.78199875 -34.52302551 275.78741455 C-35.19105798 275.79038567 -35.85909045 275.7933568 -36.54736632 275.79641795 C-38.79046062 275.80510383 -41.03350154 275.8066131 -43.27661133 275.80810547 C-44.88306289 275.81273372 -46.48951335 275.8177584 -48.09596252 275.82315063 C-52.46381662 275.83627597 -56.83165534 275.84271986 -61.19952607 275.84716129 C-63.92815689 275.85009182 -66.65678351 275.85419659 -69.38541222 275.85866547 C-77.92198251 275.87234078 -86.4585432 275.88200726 -94.99512368 275.88586736 C-104.85061235 275.89034827 -114.70596233 275.90789758 -124.56140882 275.93686795 C-132.17848807 275.95848164 -139.7955283 275.96857147 -147.41263789 275.96990848 C-151.962395 275.97095673 -156.51202176 275.97686893 -161.0617466 275.99472809 C-165.34222035 276.01120336 -169.62246567 276.01336696 -173.90295982 276.00458908 C-175.47269172 276.00381841 -177.04243586 276.00816539 -178.61213684 276.01804733 C-180.75807901 276.03076303 -182.90321169 276.02489286 -185.04914856 276.01446533 C-186.24911374 276.01593189 -187.44907892 276.01739845 -188.68540668 276.01890945 C-193.0266667 275.52829933 -196.41139448 274.108044 -199.62109375 271.11181641 C-202.95615397 266.75058381 -204.10030219 264.72983695 -204.12373352 259.28375244 C-204.13088882 258.14534912 -204.13804413 257.0069458 -204.14541626 255.83404541 C-204.14810516 254.57896179 -204.15079407 253.32387817 -204.15356445 252.03076172 C-204.16013565 250.71362183 -204.16670685 249.39648193 -204.17347717 248.03942871 C-204.19089331 244.41943111 -204.20144089 240.79944673 -204.2096827 237.17941761 C-204.21483227 234.91764153 -204.22090806 232.65586956 -204.22719383 230.39409637 C-204.24624886 223.31730685 -204.26047852 216.24052776 -204.2688058 209.16371751 C-204.27857611 200.99536205 -204.30488867 192.82727773 -204.34530669 184.6590178 C-204.37547428 178.34555782 -204.39027533 172.03217552 -204.39358681 165.71864486 C-204.39593686 161.94793027 -204.40489066 158.17750523 -204.43004799 154.40686798 C-204.4533449 150.85764703 -204.45755581 147.30890592 -204.44728661 143.7596283 C-204.4465559 141.84038178 -204.46563654 139.92115955 -204.48535156 138.00201416 C-204.44668858 131.60061359 -204.39509302 127.45666752 -199.9765625 122.64697266 C-195.98170578 119.12769412 -193.70054717 117.5158082 -188.40625 117.54931641 C-187.51035156 117.55253906 -186.61445313 117.55576172 -185.69140625 117.55908203 C-184.28568359 117.57165039 -184.28568359 117.57165039 -182.8515625 117.58447266 C-181.90667969 117.58898437 -180.96179688 117.59349609 -179.98828125 117.59814453 C-177.65097863 117.60994909 -175.31380189 117.62641507 -172.9765625 117.64697266 C-172.99750977 116.55344482 -173.01845703 115.45991699 -173.04003906 114.33325195 C-173.11312381 110.22759396 -173.15860784 106.12199192 -173.19628906 102.01586914 C-173.21625012 100.24786673 -173.24342902 98.479929 -173.27832031 96.7121582 C-173.54437375 82.87346691 -172.80207746 71.32403224 -162.9765625 60.64697266 C-156.12092943 53.59731224 -148.32220358 48.03855559 -138.21580505 47.49980164 C-137.15644241 47.48995743 -136.09707977 47.48011322 -135.00561523 47.4699707 C-133.80013535 47.45713547 -132.59465546 47.44430023 -131.35264587 47.43107605 C-130.0516243 47.42368912 -128.75060272 47.41630219 -127.41015625 47.40869141 C-126.74353533 47.40461588 -126.07691441 47.40054035 -125.39009285 47.39634132 C-121.85666341 47.37550825 -118.3232724 47.36119869 -114.78979492 47.35180664 C-111.16763207 47.34079088 -107.54609179 47.30644044 -103.92414761 47.26663494 C-101.11600224 47.24028469 -98.30800058 47.23209835 -95.49974251 47.22852516 C-93.524107 47.22137755 -91.54857047 47.19501352 -89.57310486 47.1681366 C-79.10173112 47.19309268 -70.42289665 49.21167045 -61.9765625 55.64697266 C-61.1721875 56.18322266 -60.3678125 56.71947266 -59.5390625 57.27197266 C-52.76239547 63.552786 -47.76969877 71.6557483 -46.71484375 80.95393372 C-46.63328151 83.32749261 -46.63801378 85.6826572 -46.68359375 88.05712891 C-46.68783859 88.91004013 -46.69208344 89.76295135 -46.69645691 90.64170837 C-46.7130762 93.33130216 -46.75069475 96.02011035 -46.7890625 98.70947266 C-46.80413107 100.54735236 -46.81781564 102.38524396 -46.83007812 104.22314453 C-46.86292445 108.69805062 -46.91458752 113.17237906 -46.9765625 117.64697266 C-46.12276001 117.61555176 -46.12276001 117.61555176 -45.25170898 117.58349609 C-42.63934434 117.49966272 -40.02726366 117.44810447 -37.4140625 117.39697266 C-36.51880859 117.36345703 -35.62355469 117.32994141 -34.70117188 117.29541016 C-28.54594174 117.20522363 -24.88197996 117.81171562 -19.9765625 121.64697266 C-14.57190664 128.00180189 -15.51657665 135.08481956 -15.7265625 143.08447266 C-15.74460937 144.38835937 -15.76265625 145.69224609 -15.78125 147.03564453 C-15.82820293 150.24018175 -15.89386786 153.44319156 -15.9765625 156.64697266 C-15.3784375 156.31697266 -14.7803125 155.98697266 -14.1640625 155.64697266 C-11.9765625 154.64697266 -11.9765625 154.64697266 -8.9765625 154.64697266 C-8.98347595 153.50202693 -8.98347595 153.50202693 -8.99052906 152.333951 C-9.10093428 133.76418845 -9.18368302 115.19449139 -9.23562336 96.62447071 C-9.26140878 87.6441399 -9.29656563 78.66402812 -9.35375977 69.68383789 C-9.40358454 61.85699893 -9.43585106 54.03031859 -9.44700497 46.20332545 C-9.45352537 42.05862238 -9.46885663 37.91437311 -9.50521278 33.76981544 C-9.539158 29.86848337 -9.54961869 25.96779187 -9.54210091 22.06632614 C-9.54347614 20.63482748 -9.55341822 19.20330735 -9.57258987 17.77193642 C-9.59749672 15.81640259 -9.58849833 13.86052482 -9.57783508 11.90486145 C-9.58474853 10.26360904 -9.58474853 10.26360904 -9.59180164 8.58920002 C-8.57226394 3.71351591 -5.14775879 0.03155831 0 0 Z M8.0234375 17.64697266 C8.02201248 19.46718933 8.02058746 21.28740601 8.01911926 23.16278076 C8.00247174 40.29125242 7.96006483 57.41948796 7.89134693 74.54783249 C7.85667934 83.35434494 7.8313391 92.16070059 7.82788086 100.96728516 C7.82484341 108.64225485 7.80438269 116.31694539 7.76291293 123.99180722 C7.74156102 128.05646753 7.72899336 132.12073077 7.73728371 136.18544769 C7.7448103 140.01059323 7.72905928 143.83493333 7.69537735 147.65993118 C7.68712704 149.06437684 7.68741429 150.46890235 7.69684029 151.87334061 C7.70843132 153.78996919 7.68641749 155.70671343 7.66267395 157.62322998 C7.65852588 159.23268053 7.65852588 159.23268053 7.65429401 160.87464523 C6.80707171 164.59780187 5.15948843 165.60438028 2.0234375 167.64697266 C-0.1171875 168.70166016 -0.1171875 168.70166016 -2.2265625 169.52197266 C-15.57671241 175.24346547 -23.55138217 184.231351 -28.9765625 197.64697266 C-32.52672636 209.43555506 -31.58052249 221.56079583 -26.4140625 232.70947266 C-20.14288161 244.37538024 -11.34114038 252.30578376 1.1875 256.77587891 C14.05935857 260.26787947 26.81380685 258.7617916 38.45703125 252.29541016 C48.86253775 245.7327467 57.52568995 236.15473179 60.4609375 223.89697266 C62.60011977 208.97076828 61.2108225 196.31869392 51.9921875 183.99462891 C46.19715728 177.08428533 39.99292241 172.74399678 31.8203125 168.97119141 C24.43789313 165.47588391 24.43789313 165.47588391 23.0234375 162.64697266 C22.92274812 160.94238875 22.88507754 159.2339084 22.87817383 157.52636719 C22.87179398 156.45830841 22.86541412 155.39024963 22.85884094 154.28982544 C22.85772812 153.13151215 22.8566153 151.97319885 22.85546875 150.77978516 C22.85047615 149.0003804 22.85047615 149.0003804 22.84538269 147.18502808 C22.84031212 144.67153309 22.8379744 142.15803135 22.83813477 139.64453125 C22.83595055 135.79497186 22.81780215 131.94569996 22.79882812 128.09619141 C22.79589382 125.65739031 22.79390927 123.21858784 22.79296875 120.77978516 C22.78578323 119.62552032 22.77859772 118.47125549 22.77119446 117.28201294 C22.77427109 116.20764984 22.77734772 115.13328674 22.78051758 114.02636719 C22.77909256 113.08197784 22.77766754 112.1375885 22.77619934 111.1645813 C23.03763902 108.50235958 23.58268398 106.88802154 25.0234375 104.64697266 C27.31652713 103.50042784 28.82253406 103.44968148 31.375 103.33056641 C32.22578125 103.28867188 33.0765625 103.24677734 33.953125 103.20361328 C34.84257812 103.16429688 35.73203125 103.12498047 36.6484375 103.08447266 C37.545625 103.04128906 38.4428125 102.99810547 39.3671875 102.95361328 C41.58574989 102.84740551 43.80457315 102.74667306 46.0234375 102.64697266 C46.0234375 97.69697266 46.0234375 92.74697266 46.0234375 87.64697266 C44.68667969 87.58638672 43.34992188 87.52580078 41.97265625 87.46337891 C40.21873929 87.37896579 38.4648336 87.29431817 36.7109375 87.20947266 C35.82986328 87.17015625 34.94878906 87.13083984 34.04101562 87.09033203 C33.19345703 87.0484375 32.34589844 87.00654297 31.47265625 86.96337891 C30.69237061 86.92672119 29.91208496 86.89006348 29.1081543 86.85229492 C27.0234375 86.64697266 27.0234375 86.64697266 24.0234375 85.64697266 C22.44228597 81.96696261 22.84330758 77.72168815 22.8203125 73.77587891 C22.81461243 73.01653549 22.80891235 72.25719208 22.80303955 71.47483826 C22.79361341 69.87199284 22.78706507 68.26912825 22.78320312 66.66625977 C22.77348465 64.22133528 22.74243475 61.77724742 22.7109375 59.33251953 C22.70440791 57.77197763 22.69915726 56.21142974 22.6953125 54.65087891 C22.6829657 53.92365128 22.6706189 53.19642365 22.65789795 52.44715881 C22.67729733 48.00349743 23.27748607 45.17634754 26.0234375 41.64697266 C28.45731503 40.43003389 30.44182596 40.32737369 33.1484375 40.08447266 C34.51355469 39.95878906 34.51355469 39.95878906 35.90625 39.83056641 C36.60492188 39.76998047 37.30359375 39.70939453 38.0234375 39.64697266 C38.0234375 37.33697266 38.0234375 35.02697266 38.0234375 32.64697266 C36.88455078 32.57349609 36.88455078 32.57349609 35.72265625 32.49853516 C34.72878906 32.42376953 33.73492187 32.34900391 32.7109375 32.27197266 C31.23173828 32.16755859 31.23173828 32.16755859 29.72265625 32.06103516 C27.0234375 31.64697266 27.0234375 31.64697266 24.0234375 29.64697266 C22.65322753 25.53634275 22.96067113 21.97785204 23.0234375 17.64697266 C18.0734375 17.64697266 13.1234375 17.64697266 8.0234375 17.64697266 Z M-151.9765625 73.64697266 C-154.87923629 78.48476231 -156.09395777 82.6650321 -156.1184082 88.26025391 C-156.12544266 89.16799561 -156.13247711 90.0757373 -156.13972473 91.01098633 C-156.14388901 91.98398682 -156.14805328 92.9569873 -156.15234375 93.95947266 C-156.17553183 96.02458713 -156.19964875 98.08969135 -156.22460938 100.15478516 C-156.25978986 103.40713478 -156.2891124 106.65910387 -156.30249023 109.91162109 C-156.31793592 113.05303685 -156.35811075 116.19334781 -156.40234375 119.33447266 C-156.40043533 120.30747314 -156.39852692 121.28047363 -156.39656067 122.28295898 C-156.51709543 128.91778128 -156.51709543 128.91778128 -158.61889648 132.25341797 C-161.65122876 134.04575023 -163.75663424 134.18999288 -167.2734375 134.25634766 C-168.47871094 134.28857422 -169.68398437 134.32080078 -170.92578125 134.35400391 C-172.80716797 134.37527344 -172.80716797 134.37527344 -174.7265625 134.39697266 C-175.99628906 134.42662109 -177.26601562 134.45626953 -178.57421875 134.48681641 C-181.70843289 134.55751297 -184.84185167 134.60691337 -187.9765625 134.64697266 C-187.90591583 135.67461731 -187.83526917 136.70226196 -187.76248169 137.76104736 C-186.9390351 150.53609568 -186.82974443 163.2708231 -186.84375 176.06884766 C-186.84307453 178.27077241 -186.84210249 180.47269708 -186.84085083 182.67462158 C-186.83938901 187.24972252 -186.84148161 191.82480373 -186.84619141 196.39990234 C-186.8519286 202.25717078 -186.84857508 208.11439378 -186.84261894 213.97166061 C-186.83900674 218.50124454 -186.84015426 223.03081767 -186.84274673 227.56040192 C-186.84341208 229.72132625 -186.84260134 231.88225157 -186.84026718 234.04317474 C-186.8377254 237.05273553 -186.841601 240.06222209 -186.84716797 243.07177734 C-186.84514374 243.95700073 -186.84311951 244.84222412 -186.84103394 245.75427246 C-186.84385376 246.57792297 -186.84667358 247.40157349 -186.84957886 248.25018311 C-186.84995588 248.958708 -186.85033291 249.66723289 -186.85072136 250.39722824 C-187.00572336 253.16830045 -187.52028891 255.90933111 -187.9765625 258.64697266 C-136.4965625 258.64697266 -85.0165625 258.64697266 -31.9765625 258.64697266 C-31.9765625 253.15161784 -32.3899618 252.5969103 -35.6640625 248.58447266 C-43.84791105 237.82234969 -47.38551272 225.73967469 -47.2890625 212.33447266 C-47.28342285 211.50488037 -47.2777832 210.67528809 -47.27197266 209.82055664 C-47.05780868 198.92257889 -44.62187718 185.13893393 -36.453125 177.15869141 C-30.75457694 171.24459543 -31.30581428 164.88897737 -31.44921875 157.14697266 C-31.49933728 155.48028593 -31.55012678 153.81361925 -31.6015625 152.14697266 C-31.63169644 150.44910322 -31.65906621 148.75118234 -31.68359375 147.05322266 C-31.74932846 142.91652469 -31.85265457 138.78232029 -31.9765625 134.64697266 C-32.77352539 134.64286377 -33.57048828 134.63875488 -34.39160156 134.63452148 C-38.00400873 134.6016192 -41.61472189 134.5309761 -45.2265625 134.45947266 C-46.48082031 134.45367187 -47.73507812 134.44787109 -49.02734375 134.44189453 C-50.23261719 134.41289062 -51.43789063 134.38388672 -52.6796875 134.35400391 C-53.78989258 134.33829346 -54.90009766 134.32258301 -56.04394531 134.30639648 C-58.9765625 133.64697266 -58.9765625 133.64697266 -61.34790039 131.3293457 C-63.53035797 127.73488289 -63.36480228 124.70661907 -63.1640625 120.64697266 C-63.12527159 118.96608975 -63.09178921 117.28507922 -63.0625 115.60400391 C-63.04413086 114.67152832 -63.02576172 113.73905273 -63.00683594 112.77832031 C-62.94736636 106.62705614 -63.11584152 100.48285741 -63.2890625 94.33447266 C-63.31186279 93.07699219 -63.33466309 91.81951172 -63.3581543 90.52392578 C-63.39336182 89.33089844 -63.42856934 88.13787109 -63.46484375 86.90869141 C-63.49102783 85.84610107 -63.51721191 84.78351074 -63.54418945 83.6887207 C-64.33297295 78.13962212 -67.16401525 73.67132809 -70.9765625 69.64697266 C-76.33506733 65.91605107 -80.90398798 64.53247975 -87.35253906 64.48583984 C-88.42755676 64.4762323 -89.50257446 64.46662476 -90.61016846 64.45672607 C-91.76748474 64.4524762 -92.92480103 64.44822632 -94.1171875 64.44384766 C-95.91141144 64.43529755 -95.91141144 64.43529755 -97.74188232 64.42657471 C-100.27371334 64.41712896 -102.80555664 64.41059242 -105.33740234 64.40673828 C-109.19781127 64.39704485 -113.05768502 64.36602139 -116.91796875 64.33447266 C-119.38020518 64.3279411 -121.84244541 64.32269123 -124.3046875 64.31884766 C-125.45390686 64.30650085 -126.60312622 64.29415405 -127.78717041 64.28143311 C-137.62438653 64.30857704 -145.1563903 66.17553732 -151.9765625 73.64697266 Z " fill="#030303" transform="translate(312.9765625,14.35302734375)"/>
<path d="M0 0 C7.88139427 5.61455516 13.30359649 12.24646931 15.80078125 21.7109375 C15.87646943 23.58487251 15.91798854 25.46049078 15.92578125 27.3359375 C16.15063099 30.6214969 16.36498702 32.19870556 18.515625 34.7265625 C21.19723732 36.85043515 23.98842568 38.76313352 26.80078125 40.7109375 C29.50200522 42.83568503 32.14933271 45.0245735 34.80078125 47.2109375 C38.50844467 50.23756603 42.21550692 53.26350952 45.98046875 56.21875 C47.31464844 57.26675781 47.31464844 57.26675781 48.67578125 58.3359375 C49.43632812 58.92632812 50.196875 59.51671875 50.98046875 60.125 C53.26801761 62.11801468 54.69223271 63.7697083 55.04687691 66.84484386 C55.04411153 68.09064708 55.04411153 68.09064708 55.04129028 69.36161804 C55.04403961 70.31654144 55.04678894 71.27146484 55.04962158 72.25532532 C55.03883575 73.82409676 55.03883575 73.82409676 55.02783203 75.42456055 C55.02812408 76.5271521 55.02841614 77.62974365 55.02871704 78.76574707 C55.02732128 82.41812958 55.01174827 86.07030928 54.99609375 89.72265625 C54.9923645 92.25185535 54.98951711 94.7810559 54.98751831 97.31025696 C54.98065658 103.29195472 54.96488614 109.27356513 54.94481933 115.25522786 C54.92246902 122.06531476 54.91146909 128.87540514 54.90142846 135.68551958 C54.88052012 149.69403389 54.84493612 163.70247892 54.80078125 177.7109375 C49.19078125 177.7109375 43.58078125 177.7109375 37.80078125 177.7109375 C37.82600357 176.41404999 37.85122589 175.11716248 37.87721252 173.78097534 C38.10457598 161.51213718 38.24107841 149.2451384 38.29043674 136.97425652 C38.31868202 130.6662758 38.37804008 124.36189718 38.51049805 118.05517578 C38.63735218 111.95919601 38.6798688 105.8677372 38.66587639 99.77051163 C38.67500466 97.45400325 38.71366183 95.13740288 38.78338814 92.82192612 C39.44483058 80.53157894 39.44483058 80.53157894 35.15574265 69.38938141 C31.22228843 65.25146994 26.76898357 62.06727105 21.9356823 59.06293106 C18.71275543 57.02191076 15.74629249 54.67604216 12.73828125 52.3359375 C11.09564908 51.12325603 9.45121124 49.91298478 7.80078125 48.7109375 C7.5584375 49.30648437 7.31609375 49.90203125 7.06640625 50.515625 C5.55767974 53.13261357 4.07339446 54.19709694 1.55078125 55.8359375 C0.803125 56.33351563 0.05546875 56.83109375 -0.71484375 57.34375 C-8.55194381 61.65661953 -17.31315674 61.94271171 -25.98046875 60.12890625 C-34.12283381 57.30742216 -41.66628591 51.26344669 -45.69921875 43.5859375 C-46.23444443 42.3084649 -46.73711744 41.01664235 -47.19921875 39.7109375 C-47.61171875 38.5559375 -48.02421875 37.4009375 -48.44921875 36.2109375 C-50.32836115 27.44160629 -48.84824456 19.8796682 -45.19921875 11.7109375 C-40.76786941 5.20756234 -35.6551375 0.35509838 -28.19921875 -2.2890625 C-27.06484375 -2.7015625 -25.93046875 -3.1140625 -24.76171875 -3.5390625 C-16.11005828 -5.3604647 -7.73587201 -4.53434771 0 0 Z M-28.01171875 19.3984375 C-30.58782959 23.29940534 -31.49636887 26.06459011 -31.19921875 30.7109375 C-29.55931657 36.4023627 -27.18384054 39.51325559 -22.19921875 42.7109375 C-17.91487409 44.12163635 -14.84151334 43.89600543 -10.51171875 42.6484375 C-6.25490043 40.15860037 -3.15575829 37.61598351 -1.56640625 32.7890625 C-0.64266282 27.71830069 -1.66363022 24.25751003 -4.19921875 19.7109375 C-7.56389178 15.5611741 -10.85146009 13.96069906 -16.13671875 13.3984375 C-21.31495319 13.92682877 -24.27965077 15.83223921 -28.01171875 19.3984375 Z " fill="#020202" transform="translate(430.19921875,307.2890625)"/>
<path d="M0 0 C5.61 0 11.22 0 17 0 C17.11308887 7.60618358 17.20476606 15.21205292 17.25906086 22.81887341 C17.28512388 26.35132845 17.32045866 29.88317713 17.37719727 33.4152832 C17.44206064 37.47873661 17.46620732 41.54155598 17.48828125 45.60546875 C17.51408768 46.8702153 17.5398941 48.13496185 17.56648254 49.43803406 C17.56924971 58.09036884 17.56924971 58.09036884 15.12060547 62.00317383 C10.75211453 64.79850221 6.26341197 67.11801038 1.58203125 69.34375 C0.06339729 70.08111389 0.06339729 70.08111389 -1.48591614 70.83337402 C-4.71515354 72.39869963 -7.95106676 73.9496157 -11.1875 75.5 C-13.34486829 76.54200192 -15.50177445 77.58496119 -17.65820312 78.62890625 C-22.45009681 80.94802548 -27.24636197 83.25782119 -32.04679871 85.5592041 C-36.38058143 87.67355248 -40.68702963 89.84351482 -45 92 C-45 100.58 -45 109.16 -45 118 C-41.7 119.65 -38.4 121.3 -35 123 C-28.30306247 127.26168752 -24.0453301 134.44076158 -22 142 C-20.98681896 151.94331161 -21.89106373 160.21224327 -27.73046875 168.4375 C-32.79668911 174.5857275 -38.99548771 179.53008047 -47 181 C-58.01443865 181.84619743 -66.60964583 180.83221094 -75.3125 173.75 C-82.63515852 166.82675922 -86.00587872 159.21795032 -86.3125 149.125 C-86.09228885 139.30113599 -83.03804783 131.97263846 -76 125 C-71.59249658 121.76557057 -67.33622238 119.24219107 -62 118 C-62.02618408 116.93040039 -62.05236816 115.86080078 -62.0793457 114.75878906 C-62.16993107 110.78569505 -62.22727857 106.81269202 -62.2746582 102.83886719 C-62.29978367 101.11996099 -62.33389047 99.40116144 -62.37719727 97.68261719 C-62.43794029 95.21001886 -62.46622762 92.73883394 -62.48828125 90.265625 C-62.51408768 89.49881409 -62.5398941 88.73200317 -62.56648254 87.94195557 C-62.56762695 85.75878906 -62.56762695 85.75878906 -62 82 C-58.75347732 78.95138278 -55.26243441 76.94748436 -51.29174805 74.97558594 C-50.17096359 74.41530701 -49.05017914 73.85502808 -47.89543152 73.277771 C-46.68425814 72.67984225 -45.47301902 72.08204665 -44.26171875 71.484375 C-43.01306909 70.86285113 -41.76468529 70.24079287 -40.51655579 69.6182251 C-37.246069 67.9886826 -33.97204214 66.36638269 -30.69720459 64.74560547 C-27.3499889 63.08739846 -24.00616701 61.42237658 -20.66210938 59.7578125 C-14.11168414 56.49784288 -7.55578737 53.24926116 -1 50 C-0.67 33.5 -0.34 17 0 0 Z M-66.4375 139.73046875 C-69.39414738 144.87380325 -69.47689049 149.33134681 -68 155 C-66.5851738 158.74512818 -64.74728108 160.39722084 -61.375 162.375 C-56.74846891 164.44632768 -52.80838522 164.62864661 -48 163 C-44.08001698 160.69719629 -41.60071347 158.15136748 -39.5 154.125 C-38.72071476 149.25446726 -38.63925377 145.26495546 -41.19921875 141.00390625 C-44.97012147 136.24326529 -48.36956719 134.57322623 -54.375 133.625 C-59.1361405 134.30516293 -63.30879062 135.96411479 -66.4375 139.73046875 Z " fill="#020202" transform="translate(101,304)"/>
<path d="M0 0 C2.64590014 -0.02684679 5.29153096 -0.04676357 7.9375 -0.0625 C8.69224609 -0.07087891 9.44699219 -0.07925781 10.22460938 -0.08789062 C12.14994313 -0.09652441 14.07535581 -0.05224333 16 0 C18.13080698 2.13080698 17.1863178 6.97379828 17.20532227 9.92602539 C17.21522186 10.86251419 17.22512146 11.79900299 17.23532104 12.76387024 C17.26703753 15.87510608 17.29173341 18.98635722 17.31640625 22.09765625 C17.33696703 24.24857492 17.35796325 26.39948946 17.37937927 28.55039978 C17.4346905 34.22377189 17.48405972 39.89718101 17.53222656 45.57061768 C17.58237567 51.35505484 17.63809606 57.13943796 17.69335938 62.92382812 C17.8010516 74.28250773 17.9019573 85.641233 18 97 C28.56 102.28 39.12 107.56 50 113 C50.66 111.02 51.32 109.04 52 107 C56.72382276 100.4529474 63.24611184 96.10061639 71 94 C79.72267854 92.96572647 87.47392822 93.24435228 95 98 C95.69609375 98.42410156 96.3921875 98.84820312 97.109375 99.28515625 C102.74613075 103.08890684 107.31887772 108.28870669 109.6328125 114.7734375 C111.29494266 124.85231189 111.06918952 134.52902444 105.828125 143.48046875 C102.98125066 147.40404557 100.00355576 150.28046753 96 153 C95.29488281 153.51691406 94.58976562 154.03382813 93.86328125 154.56640625 C86.02207965 159.45218042 77.75810936 158.41764829 69 157 C65.86310175 156.11523383 63.59042787 154.95774273 61 153 C59.97519531 152.27296875 59.97519531 152.27296875 58.9296875 151.53125 C52.85380082 146.77815784 49.36107027 140.81833434 47.26953125 133.4140625 C45.48711422 130.02472796 42.91468498 129.01195974 39.5625 127.5 C38.54990112 127.01611816 38.54990112 127.01611816 37.5168457 126.52246094 C35.01876065 125.33173153 32.50967249 124.16611045 30 123 C25.8363704 121.051067 21.67812005 119.09137837 17.52584839 117.1184082 C15.70646126 116.25895702 13.88109198 115.41330339 12.05493164 114.56835938 C10.92692139 114.03533203 9.79891113 113.50230469 8.63671875 112.953125 C7.11630981 112.24397949 7.11630981 112.24397949 5.56518555 111.52050781 C2.81746544 109.89180306 1.67439023 108.68760969 0 106 C-0.36914349 103.8523674 -0.36914349 103.8523674 -0.36076355 101.49481201 C-0.36488754 100.59741302 -0.36901154 99.70001404 -0.3732605 98.77542114 C-0.36247467 97.79862396 -0.35168884 96.82182678 -0.34057617 95.81542969 C-0.34101425 94.7809671 -0.34145233 93.74650452 -0.34190369 92.68069458 C-0.3398134 89.26089617 -0.31647046 85.84158779 -0.29296875 82.421875 C-0.28737366 80.05104846 -0.28310315 77.68021845 -0.28010559 75.30938721 C-0.26865002 69.06875028 -0.23917643 62.82832274 -0.20599365 56.58776855 C-0.17530829 50.21999952 -0.16160352 43.85219666 -0.14648438 37.484375 C-0.11430764 24.98949133 -0.06310246 12.49476307 0 0 Z M66.5625 115.9375 C63.31062273 120.22997799 63.35130096 125.81040771 64 131 C66.21200452 135.42400903 68.46582478 137.99652723 73 140 C77.92604972 141.30122068 81.51971954 141.11293534 86.13671875 139.140625 C90.65176257 136.3766988 92.58182993 132.46359524 94 127.5 C94 121.72290085 92.22389282 118.30928069 88.3125 114.125 C80.82472382 109.32152094 73.43291994 110.47639697 66.5625 115.9375 Z " fill="#020202" transform="translate(312,304)"/>
<path d="M0 0 C5.28 0 10.56 0 16 0 C17.1760003 2.3520006 17.12084541 3.73734401 17.11352539 6.35791016 C17.11344986 7.25869293 17.11337433 8.15947571 17.11329651 9.08755493 C17.10813522 10.06155243 17.10297394 11.03554993 17.09765625 12.0390625 C17.0962413 13.03505463 17.09482635 14.03104675 17.09336853 15.05722046 C17.08775936 18.24651053 17.0752053 21.43573106 17.0625 24.625 C17.05748618 26.78385315 17.05292307 28.94270741 17.04882812 31.1015625 C17.03778695 36.4010655 17.02103988 41.70052778 17 47 C17.74258057 47.38381836 18.48516113 47.76763672 19.25024414 48.16308594 C20.72158813 48.94087402 20.72158813 48.94087402 22.22265625 49.734375 C23.19211182 50.24194336 24.16156738 50.74951172 25.16040039 51.27246094 C31.95771074 55.407769 36.76610186 61.71028347 39.375 69.19921875 C41.42665147 78.39318191 40.96571115 87.85568802 36 96 C33.50573778 99.18446837 30.85235579 102.13379783 28 105 C28.50225098 105.31114746 29.00450195 105.62229492 29.52197266 105.94287109 C38.16768078 111.31318216 46.7871866 116.69372861 55.0625 122.625 C55.63887207 123.0379834 56.21524414 123.4509668 56.80908203 123.87646484 C59.02200942 125.48335112 61.06285361 127.06285361 63 129 C63.24050903 131.21463013 63.24050903 131.21463013 63.22705078 134.00048828 C63.22689972 135.04141632 63.22674866 136.08234436 63.22659302 137.15481567 C63.21627045 138.28192963 63.20594788 139.40904358 63.1953125 140.5703125 C63.1924826 141.72167694 63.18965271 142.87304138 63.18673706 144.05929565 C63.17551408 147.74796812 63.15040556 151.43640053 63.125 155.125 C63.11497294 157.62109025 63.10584662 160.1171843 63.09765625 162.61328125 C63.0755678 168.74228044 63.04102343 174.87109948 63 181 C57.72 181 52.44 181 47 181 C47 166.81 47 152.62 47 138 C45.35 137.34 43.7 136.68 42 136 C39.82708975 134.54016366 37.72412682 133.05801327 35.625 131.5 C30.41944439 127.71127485 25.16286504 124.0192467 19.8125 120.4375 C19.17715332 120.00824219 18.54180664 119.57898438 17.88720703 119.13671875 C15.27254799 117.39408421 12.99634152 115.99878051 10 115 C10 114.34 10 113.68 10 113 C9.23816406 112.84144531 8.47632813 112.68289063 7.69140625 112.51953125 C-5.75255031 109.48163345 -14.51109329 103.69717452 -22 92 C-25.3303157 84.2797227 -25.27250616 74.57198065 -22.4375 66.6875 C-18.80655293 58.83955827 -12.90881816 52.61324437 -5 49 C-2.525 48.505 -2.525 48.505 0 48 C0 32.16 0 16.32 0 0 Z M-3.875 69.75 C-6.60875788 73.93104146 -7.58756893 77.06775123 -6.58984375 82.046875 C-4.9811989 87.17142026 -2.64372855 90.10862185 2 93 C6.28990495 94.40381036 9.35238682 94.18660041 13.6875 92.9375 C18.06398643 90.37766832 21.09274258 87.86502343 22.66796875 82.890625 C23.53276799 77.92445113 22.95507687 74.11000352 20.4375 69.73046875 C17.31600503 65.97279953 13.15925495 64.36865328 8.4375 63.5625 C3.34922402 64.4757803 -0.13477843 66.17239675 -3.875 69.75 Z " fill="#030303" transform="translate(234,304)"/>
<path d="M0 0 C7.51392111 5.01371373 11.18338366 11.55015099 14 20 C14.69232711 28.72786138 14.33303035 36.26141067 10 44 C9.48856445 44.5264209 8.97712891 45.0528418 8.45019531 45.59521484 C6.32676654 49.11638882 6.59810354 52.57099234 6.62890625 56.5625 C6.61152845 58.26302289 6.59394402 59.96354368 6.57617188 61.6640625 C6.56608828 64.33695279 6.56250618 67.00970864 6.56420898 69.68261719 C6.56064066 72.2679847 6.53331048 74.85231665 6.50390625 77.4375 C6.51208878 78.23551025 6.5202713 79.03352051 6.52870178 79.85571289 C6.48361569 83.21429865 6.24508719 85.58739761 4.51513672 88.49975586 C0.86618878 90.67630266 -2.616353 90.59148498 -6.74609375 90.56640625 C-7.59422134 90.57260483 -8.44234894 90.57880341 -9.31617737 90.58518982 C-11.10733901 90.59228375 -12.89856664 90.58912135 -14.68969727 90.57641602 C-17.42523072 90.56256214 -20.15733422 90.59660859 -22.89257812 90.63476562 C-24.6354175 90.63571699 -26.37826115 90.63385704 -28.12109375 90.62890625 C-28.9358165 90.64216446 -29.75053925 90.65542267 -30.58995056 90.66908264 C-34.64266093 90.60290455 -36.57315668 90.28541289 -40.02172852 87.97949219 C-42.54565406 84.17818559 -42.64530257 81.10848045 -42.53125 76.69921875 C-42.53451294 75.90401321 -42.53777588 75.10880768 -42.5411377 74.289505 C-42.55424285 70.90478874 -42.50973836 67.52140731 -42.47021484 64.13696289 C-42.04109231 51.1386058 -42.04109231 51.1386058 -48 40 C-51.31269962 33.05910555 -50.99637626 24.37969053 -48.75 17.125 C-45.51656636 8.80190229 -39.71951612 1.44222363 -31.5625 -2.4375 C-21.5684723 -5.9621113 -9.13159146 -5.52485875 0 0 Z M-27 15 C-29.97597086 17.97597086 -31.95438064 20.91257885 -33 25 C-33 30.19134306 -32.63432763 32.53578275 -28.9921875 36.19921875 C-24.14672437 42.42837585 -25.10902069 50.48173233 -25.125 58 C-25.10685031 59.55341909 -25.08604051 61.1068095 -25.0625 62.66015625 C-25.00600377 66.44136803 -25.0042602 70.2169404 -25 74 C-20.05 74 -15.1 74 -10 74 C-10.66 73.67 -11.32 73.34 -12 73 C-11.67 72.34 -11.34 71.68 -11 71 C-10.9168943 68.92714862 -10.89176309 66.85185857 -10.89453125 64.77734375 C-10.87970703 63.51599609 -10.86488281 62.25464844 -10.84960938 60.95507812 C-10.81952222 58.30255593 -10.8195002 55.65519106 -10.83398438 53.00195312 C-10.70989099 45.59019342 -10.17759937 40.6657236 -5.38769531 34.84643555 C-2.93546889 31.58355932 -2.93467796 29.04996652 -3 25 C-4.64117627 19.30415294 -7.04480417 16.23993574 -12 13 C-17.63184664 11.3313047 -21.97913505 12.15593706 -27 15 Z " fill="#020202" transform="translate(221,168)"/>
<path d="M0 0 C5.28 0 10.56 0 16 0 C15.97268799 2.19865723 15.94537598 4.39731445 15.91723633 6.66259766 C15.83450913 13.97882059 15.81327949 21.29432956 15.82121754 28.61098671 C15.82417942 33.04160902 15.80730902 37.47019463 15.74291992 41.90039062 C15.68138168 46.1871561 15.67480517 50.47099633 15.70416832 54.75806808 C15.70605193 56.38216654 15.68910219 58.00641449 15.65177345 59.63008499 C15.36800508 72.82833141 19.01990642 79.49400128 28 89 C29.23755213 90.49405183 30.46558316 91.99622179 31.671875 93.515625 C33.21053268 95.38644947 34.75314354 97.25378491 36.30078125 99.1171875 C37.34646276 100.39087475 38.37442405 101.67930297 39.38476562 102.98120117 C40.98752716 105.04827908 40.98752716 105.04827908 42.91210938 106.98168945 C50.14785166 115.32658031 49.04640373 125.2453265 49 135.6875 C49.01579399 137.62217234 49.03394972 139.55682681 49.05444336 141.49145508 C49.1585726 154.6745514 48.9488612 167.84732403 48 181 C42.39 181 36.78 181 31 181 C31.02731201 179.2557373 31.05462402 177.51147461 31.08276367 175.71435547 C31.16070862 169.89482057 31.18670667 164.07624037 31.17878246 158.25628471 C31.17582657 154.73346109 31.1925059 151.21320228 31.25708008 147.69091797 C32.23203634 127.82086618 32.23203634 127.82086618 23.30357361 110.96928406 C21.897378 109.61611958 20.44993278 108.30619108 19 107 C17.81707129 105.58199342 16.65982557 104.14153722 15.546875 102.66796875 C14.6152706 101.50726055 13.68301918 100.34707125 12.75 99.1875 C11.35203017 97.44974583 9.95719948 95.71401013 8.5995636 93.94448853 C7.04957375 91.97065722 7.04957375 91.97065722 5.20744324 90.34225464 C-1.01095423 84.00782754 -0.85492788 77.70367883 -0.79307556 69.32566833 C-0.75733969 67.53871149 -0.7208279 65.75177001 -0.68359375 63.96484375 C-0.67052058 62.11684553 -0.66056453 60.26882288 -0.65357971 58.42079163 C-0.62698904 53.58195753 -0.55834619 48.74461942 -0.48065186 43.90637207 C-0.40874692 38.95927157 -0.37701026 34.01192677 -0.34179688 29.06445312 C-0.26696407 19.37554264 -0.14394734 9.68813038 0 0 Z " fill="#010101" transform="translate(156,304)"/>
<path d="M0 0 C0.86936691 -0.00570007 1.73873383 -0.01140015 2.63444519 -0.01727295 C4.47446477 -0.02671778 6.31450123 -0.03325488 8.15454102 -0.03710938 C10.95945019 -0.04680237 13.76362254 -0.0778251 16.56835938 -0.109375 C18.35806858 -0.11590668 20.14778301 -0.1211565 21.9375 -0.125 C23.18935844 -0.1435202 23.18935844 -0.1435202 24.46650696 -0.16241455 C30.13840965 -0.1408867 34.49756729 0.71032744 38.8125 4.73828125 C44.44266561 12.1008055 43.46061367 19.21510266 43.51806641 28.16918945 C43.53462207 30.06156719 43.5619071 31.9538825 43.60009766 33.84594727 C43.65491347 36.57601314 43.67674693 39.3046139 43.69140625 42.03515625 C43.71407562 42.87802689 43.736745 43.72089752 43.76010132 44.58930969 C43.74584372 48.56136018 43.43270917 50.75095418 41.39306641 54.23461914 C36.42791643 57.26520235 31.75468554 56.91791099 26.04296875 56.8671875 C24.27348877 56.87436295 24.27348877 56.87436295 22.46826172 56.88168335 C19.97687444 56.88508227 17.48544256 56.87588065 14.99414062 56.85498047 C11.18127976 56.82821843 7.37136307 56.85473243 3.55859375 56.88671875 C1.13671225 56.88341466 -1.28516741 56.87700844 -3.70703125 56.8671875 C-5.41656982 56.88236923 -5.41656982 56.88236923 -7.16064453 56.89785767 C-11.942436 56.82706624 -14.94009149 56.75889704 -19.05273438 54.19628906 C-21.35871303 50.31713177 -21.51760349 47.0361079 -21.42578125 42.6484375 C-21.42582153 41.82866425 -21.42586182 41.00889099 -21.42590332 40.16427612 C-21.42055572 38.43447179 -21.40300524 36.70466745 -21.37402344 34.97509766 C-21.33227215 32.34330991 -21.33294967 29.71409356 -21.33984375 27.08203125 C-21.3293461 25.39581574 -21.3164049 23.70961331 -21.30078125 22.0234375 C-21.30057983 21.24404816 -21.30037842 20.46465881 -21.3001709 19.66165161 C-21.17746413 13.92324606 -20.20071732 8.95425517 -16.33203125 4.4609375 C-10.83527807 0.30974369 -6.70054153 0.03387457 0 0 Z M-3.83203125 17.203125 C-3.83203125 24.463125 -3.83203125 31.723125 -3.83203125 39.203125 C6.06796875 39.203125 15.96796875 39.203125 26.16796875 39.203125 C26.16796875 31.943125 26.16796875 24.683125 26.16796875 17.203125 C16.26796875 17.203125 6.36796875 17.203125 -3.83203125 17.203125 Z " fill="#020202" transform="translate(191.83203125,92.796875)"/>
<path d="M0 0 C7.64144739 5.32340691 12.48661022 12.03778116 15 21 C16.06707421 31.47221667 14.61314467 39.47401403 8.875 48.25 C1.05203953 55.73283175 -7.43132928 59.42508398 -18.19360352 59.36352539 C-27.18943624 59.11761817 -33.74971908 56.05468422 -40.24609375 49.92578125 C-47.14571704 42.35002561 -49.51263881 34.47900863 -49.3046875 24.3125 C-48.44981004 15.01844764 -43.88394404 8.13384821 -37 2 C-25.97590397 -5.58472288 -11.80445801 -6.95949785 0 0 Z M-26 15 C-28.97597086 17.97597086 -30.95438064 20.91257885 -32 25 C-31.81309777 30.88742011 -30.87848698 34.36736277 -27 39 C-23.47721406 41.6884419 -20.41971217 42.73481727 -16 43 C-10.51145562 42.21592223 -7.48665684 40.34964677 -4.171875 36.0546875 C-2.10588466 32.43231778 -1.58124596 29.13076021 -2 25 C-3.31736547 20.42558984 -5.24739601 17.6380773 -8.875 14.5625 C-15.23695406 11.38152297 -19.84853804 11.58252113 -26 15 Z " fill="#020202" transform="translate(345,199)"/>
<path d="M0 0 C0.33 0 0.66 0 1 0 C1 1.65 1 3.3 1 5 C0.67 5 0.34 5 0 5 C0 3.35 0 1.7 0 0 Z " fill="#000000" transform="translate(298,461)"/>
<path d="M0 0 C0.33 0 0.66 0 1 0 C1 1.65 1 3.3 1 5 C0.67 5 0.34 5 0 5 C0 3.35 0 1.7 0 0 Z " fill="#000000" transform="translate(37,409)"/>
<path d="" fill="#717171" transform="translate(0,0)"/>
<path d="" fill="#FFFFFF" transform="translate(0,0)"/>
</svg>
