<?xml version="1.0" standalone="no"?>
<!DOCTYPE svg PUBLIC "-//W3C//DTD SVG 20010904//EN"
 "http://www.w3.org/TR/2001/REC-SVG-20010904/DTD/svg10.dtd">
<svg version="1.0" xmlns="http://www.w3.org/2000/svg"
 width="474.000000pt" height="474.000000pt" viewBox="0 0 474.000000 474.000000"
 preserveAspectRatio="xMidYMid meet">
<metadata>
Created by potrace 1.16, written by Peter Selinger 2001-2019
</metadata>
<g transform="translate(0.000000,474.000000) scale(0.100000,-0.100000)"
fill="#D9D9D9" stroke="none">
<path d="M273 4565 c-134 -67 -163 -230 -61 -346 13 -15 38 -34 56 -43 l32
-17 0 -185 c0 -208 7 -235 75 -292 56 -46 93 -52 314 -52 l201 0 0 75 0 75
-203 0 c-261 0 -241 -17 -245 210 l-3 168 42 23 c156 86 141 311 -26 390 -57
26 -121 24 -182 -6z m145 -141 c29 -20 31 -83 2 -109 -27 -25 -80 -22 -102 6
-23 27 -23 77 -1 101 20 22 71 24 101 2z"/>
<path d="M4285 4571 c-162 -75 -180 -293 -33 -384 l49 -31 -3 -167 c-4 -226
16 -209 -245 -209 l-203 0 0 -75 0 -75 201 0 c221 0 258 6 315 53 65 54 74 87
74 294 l0 182 28 15 c41 21 82 66 103 111 80 173 -114 366 -286 286z m133
-147 c29 -20 31 -83 3 -108 -46 -42 -124 -8 -124 53 0 62 68 93 121 55z"/>
<path d="M2186 4430 c-104 -17 -208 -50 -313 -100 -330 -157 -557 -431 -653
-787 -16 -58 -23 -120 -27 -238 -6 -182 7 -275 58 -423 40 -114 67 -166 321
-622 117 -212 344 -620 503 -907 160 -288 292 -523 295 -523 3 0 135 235 295
523 159 287 363 655 454 817 335 603 356 645 403 815 19 70 22 105 22 275 1
171 -2 205 -22 277 -76 281 -225 505 -447 672 -96 72 -288 165 -410 197 -84
22 -126 27 -260 30 -88 1 -187 -1 -219 -6z m447 -244 c208 -62 390 -189 518
-362 54 -74 124 -221 151 -319 19 -68 22 -105 22 -250 0 -156 -3 -177 -28
-259 -103 -339 -351 -580 -692 -672 -99 -27 -358 -27 -464 0 -339 86 -593 331
-696 671 -25 83 -28 104 -28 260 0 145 3 182 22 250 100 364 388 628 767 704
28 6 115 8 195 7 120 -3 160 -8 233 -30z"/>
<path d="M2200 4055 c-248 -53 -461 -225 -571 -458 -48 -104 -69 -205 -69
-337 0 -145 22 -240 85 -365 82 -164 199 -281 360 -361 129 -63 224 -86 365
-86 141 0 236 23 365 86 211 104 365 297 425 530 27 107 28 283 1 388 -77 299
-307 527 -604 598 -97 24 -258 26 -357 5z"/>
<path d="M435 3464 c-50 -18 -92 -58 -116 -109 -14 -31 -19 -64 -19 -147 l0
-106 -43 -25 c-118 -70 -141 -229 -49 -339 78 -93 245 -90 329 5 41 47 57 97
50 167 -6 73 -42 130 -102 165 l-45 27 0 88 c0 73 3 92 21 114 l20 26 205 0
204 0 0 75 0 75 -207 -1 c-156 0 -218 -4 -248 -15z m-17 -520 c16 -11 22 -25
22 -52 0 -45 -8 -58 -43 -71 -49 -19 -97 14 -97 66 0 62 65 94 118 57z"/>
<path d="M3857 3404 c-4 -4 -7 -38 -7 -76 l0 -68 199 0 c253 0 245 5 249 -138
l4 -99 -30 -12 c-16 -7 -43 -27 -60 -44 -102 -105 -75 -268 57 -349 25 -16 51
-22 96 -22 52 -1 69 4 111 29 142 88 149 282 13 370 l-47 30 -3 121 c-4 111
-6 124 -31 162 -15 22 -49 54 -75 69 -48 28 -49 28 -258 31 -116 2 -213 0
-218 -4z m553 -524 c28 -15 40 -61 24 -98 -23 -56 -105 -56 -129 0 -29 71 38
134 105 98z"/>
<path d="M597 2507 c-55 -17 -106 -63 -130 -116 -18 -40 -22 -70 -25 -228 -4
-161 -6 -183 -21 -188 -10 -3 -32 -20 -50 -37 -109 -107 -92 -267 37 -349 129
-81 312 11 329 165 10 85 -35 167 -119 219 l-28 17 0 166 c0 228 -16 214 250
214 l200 0 0 75 0 75 -202 -1 c-125 0 -218 -5 -241 -12z m-27 -677 c30 -30 27
-83 -6 -109 -30 -24 -43 -26 -78 -10 -50 23 -55 101 -9 128 29 17 71 13 93 -9z"/>
<path d="M3700 2371 l0 -70 205 -3 c180 -3 206 -5 222 -21 15 -15 19 -39 21
-156 l3 -138 -29 -12 c-39 -16 -87 -68 -106 -113 -39 -91 0 -206 88 -265 41
-28 57 -33 107 -33 68 0 109 15 158 56 108 91 89 276 -36 349 l-33 19 0 112
c0 196 -29 274 -120 320 -43 22 -56 23 -262 24 l-218 0 0 -69z m572 -538 c23
-28 28 -50 17 -81 -9 -28 -44 -52 -73 -52 -7 0 -25 9 -40 21 -33 26 -36 79 -6
109 25 25 81 27 102 3z"/>
<path d="M1202 1770 c-56 -13 -110 -56 -137 -110 -23 -46 -25 -59 -25 -198 0
-136 -2 -152 -21 -176 l-20 -26 -214 0 -213 0 -12 29 c-29 70 -131 128 -208
116 -225 -34 -276 -313 -77 -418 54 -28 136 -28 191 0 45 24 104 85 104 108 0
13 33 15 218 15 207 0 219 1 267 24 104 49 125 96 126 278 0 142 10 192 39
208 10 6 73 10 139 10 l121 0 0 75 0 75 -122 -1 c-68 -1 -138 -5 -156 -9z
m-782 -530 c29 -29 27 -94 -2 -114 -12 -9 -34 -16 -48 -16 -44 0 -70 26 -70
71 0 48 27 79 70 79 17 0 39 -9 50 -20z"/>
<path d="M3260 1705 l0 -75 125 0 c112 0 127 -2 145 -20 24 -24 22 -10 26
-183 1 -76 8 -154 14 -173 16 -47 54 -90 104 -117 38 -20 57 -22 264 -25 l222
-3 14 -27 c53 -101 193 -146 291 -95 139 73 167 244 57 356 -79 81 -209 85
-294 9 -21 -19 -46 -48 -54 -64 l-15 -28 -209 0 -209 0 -20 26 c-19 24 -21 40
-21 175 0 170 -14 218 -76 266 -57 43 -99 52 -236 53 l-128 0 0 -75z m1160
-465 c27 -27 27 -83 -2 -110 -48 -44 -118 -11 -118 55 0 44 29 75 70 75 17 0
39 -9 50 -20z"/>
<path d="M1850 800 c0 -143 53 -130 -543 -130 l-502 0 -35 47 c-48 65 -100 93
-173 93 -123 0 -227 -102 -227 -225 0 -38 40 -123 71 -152 36 -33 109 -63 155
-63 64 0 141 44 177 102 l30 48 514 0 514 0 47 24 c92 47 121 107 122 249 l0
97 -75 0 -75 0 0 -90z m-1227 -139 c51 -20 56 -105 8 -130 -78 -42 -149 52
-86 114 26 27 41 30 78 16z"/>
<path d="M2740 793 c0 -82 4 -106 24 -149 25 -54 69 -94 125 -113 24 -8 189
-11 542 -11 l507 0 26 -45 c52 -88 169 -127 262 -86 64 29 98 62 124 124 40
93 4 207 -82 264 -53 36 -157 44 -209 18 -43 -22 -87 -62 -105 -97 l-15 -28
-504 0 c-598 0 -545 -13 -545 130 l0 90 -75 0 -75 0 0 -97z m1455 -148 c50
-49 20 -125 -49 -125 -25 0 -40 7 -55 26 -25 32 -26 46 -6 84 23 45 74 52 110
15z"/>
<path d="M1630 225 l0 -75 740 0 740 0 0 75 0 75 -740 0 -740 0 0 -75z"/>
</g>
</svg>
